<svg width="20" height="20" viewBox="0 0 20 20" fill="none" xmlns="http://www.w3.org/2000/svg">
<path fill-rule="evenodd" clip-rule="evenodd" d="M5 17.8944C3.34315 17.8944 2 16.5592 2 14.912V10.9355C2 9.28836 3.34315 7.95309 5 7.95309H6.352L7.55279 3.63691C8.03107 2.68596 8.97938 2.06466 10.0366 1.99485L10.2361 1.98828H10.5C11.8255 1.98828 12.91 3.01377 12.9947 4.31021L13 4.47362V7.95309H14.9983C15.1958 7.95309 15.3929 7.97249 15.5866 8.01101C17.1533 8.3225 18.1889 9.79461 17.9696 11.3476L17.94 11.5204L16.74 15.4969C16.4712 16.8329 15.3293 17.8101 13.9759 17.8893L13.7983 17.8944H5ZM6 9.94136H5C4.44772 9.94136 4 10.3864 4 10.9355V14.912C4 15.4611 4.44772 15.9062 5 15.9062H6V9.94136ZM10.5 3.97655H10.2361C9.9468 3.97655 9.67649 4.10063 9.48944 4.30929L9.41457 4.40378L8.24444 8.6125C8.20996 8.73652 8.16345 8.85692 8.10557 8.972C8.0535 9.07553 8.02015 9.18704 8.00673 9.30143L8 9.41659V15.9062H13.8583C14.2952 15.9062 14.6765 15.6251 14.809 15.2203L14.8843 14.9256L16.0501 11.0626L16.0584 10.9447C16.0633 10.4764 15.7332 10.0559 15.2544 9.96067L15.1568 9.9462L15.0583 9.94136H13C11.9456 9.94136 11.0818 9.13027 11.0055 8.10148L11 7.95309V4.47362C11 4.2296 10.8231 4.02665 10.5899 3.98456L10.5 3.97655Z" fill="black"/>
</svg>
