<svg width="20" height="21" viewBox="0 0 20 21" fill="none" xmlns="http://www.w3.org/2000/svg">
<path fill-rule="evenodd" clip-rule="evenodd" d="M14.9988 2.98242C16.6557 2.98242 17.9988 4.31769 17.9988 5.96483V9.94137C17.9988 11.5885 16.6557 12.9238 14.9988 12.9238H13.6468L12.446 17.2399C11.9678 18.1909 11.0195 18.8122 9.96219 18.882L9.76277 18.8886H9.49884C8.17335 18.8886 7.0888 17.8631 7.00415 16.5667L6.99884 16.4032V12.9238H5.00058C4.80302 12.9238 4.60595 12.9044 4.41223 12.8659C2.84558 12.5544 1.80989 11.0823 2.02926 9.5293L2.05884 9.35647L3.25884 5.37993C3.52761 4.04397 4.66958 3.06672 6.02291 2.9876L6.20058 2.98242H14.9988ZM13.9988 10.9355H14.9988C15.5511 10.9355 15.9988 10.4904 15.9988 9.94137V5.96483C15.9988 5.41578 15.5511 4.97069 14.9988 4.97069H13.9988V10.9355ZM9.49884 16.9003H9.76277C10.052 16.9003 10.3223 16.7762 10.5094 16.5676L10.5843 16.4731L11.7544 12.2644C11.7889 12.1403 11.8354 12.0199 11.8933 11.9049C11.9453 11.8013 11.9787 11.6898 11.9921 11.5754L11.9988 11.4603V4.97069H6.14058C5.70362 4.97069 5.32235 5.25175 5.18983 5.65652L5.11449 5.95125L3.94874 9.81429L3.94044 9.9322C3.93557 10.4005 4.26561 10.821 4.74446 10.9162L4.84204 10.9307L4.94058 10.9355H6.99884C8.0532 10.9355 8.917 11.7466 8.99335 12.7754L8.99884 12.9238V16.4032C8.99884 16.6473 9.17571 16.8502 9.40896 16.8923L9.49884 16.9003Z" fill="black"/>
</svg>
